<?xml version="1.0" encoding="UTF-8" standalone="no"?>
<!DOCTYPE svg PUBLIC "-//W3C//DTD SVG 20010904//EN"
              "http://www.w3.org/TR/2001/REC-SVG-20010904/DTD/svg10.dtd">

<svg xmlns="http://www.w3.org/2000/svg"
     viewBox="0 0 1200 540">
  <path id="Selección #1"
        fill="#042145" stroke="#042145" stroke-width="1"
        d="M 0.00,0.00
           C 0.00,0.00 1200.00,0.00 1200.00,0.00
             1194.87,36.42 1165.38,77.62 1140.00,103.00
             1102.77,140.23 1066.17,160.65 1019.00,182.31
             1019.00,182.31 991.00,195.58 991.00,195.58
             961.19,208.54 930.82,219.73 900.00,230.00
             824.63,255.12 733.21,277.10 655.00,292.20
             655.00,292.20 567.00,307.80 567.00,307.80
             471.88,326.16 367.62,349.49 275.00,377.28
             220.56,393.61 164.62,413.80 114.00,439.74
             85.85,454.17 58.39,470.40 35.00,491.92
             35.00,491.92 27.17,499.04 27.17,499.04
             19.87,506.76 13.00,514.93 7.43,524.00
             7.43,524.00 0.00,538.00 0.00,538.00
             0.00,538.00 0.00,0.00 0.00,0.00 Z" />
</svg>
